<svg xmlns="http://www.w3.org/2000/svg" viewBox="0 0 128 128" role="img" aria-label="Python logo">
  <path fill="#3776AB" d="M63.8 12c-24.8 0-23.2 10.8-23.2 10.8l.03 11.2h23.6v3.4H31.2s-11.7-1.3-11.7 17.1c0 18.4 10 17.7 10 17.7h6V57.4s-.3-10 9.7-10h19.2s10.8.2 10.8-10.5V23.1S76.7 12 59.2 12h4.6Z"/>
  <circle cx="52.2" cy="24.9" r="4" fill="#fff"/>
  <path fill="#FFD43B" d="M64.2 116c24.8 0 23.2-10.8 23.2-10.8l-.03-11.2H63.8v-3.4h33s11.7 1.3 11.7-17.1c0-18.4-10-17.7-10-17.7h-6v14.8s.3 10-9.7 10H63.6s-10.8-.2-10.8 10.5v13.8S51.3 116 68.8 116h-4.6Z"/>
  <circle cx="75.8" cy="103.1" r="4" fill="#fff"/>
</svg>
